<?xml version="1.0" encoding="UTF-8" standalone="no"?>
<!-- Created with Inkscape (http://www.inkscape.org/) -->

<svg
   xmlns:dc="http://purl.org/dc/elements/1.1/"
   xmlns:cc="http://creativecommons.org/ns#"
   xmlns:rdf="http://www.w3.org/1999/02/22-rdf-syntax-ns#"
   xmlns:svg="http://www.w3.org/2000/svg"
   xmlns="http://www.w3.org/2000/svg"
   xmlns:sodipodi="http://sodipodi.sourceforge.net/DTD/sodipodi-0.dtd"
   xmlns:inkscape="http://www.inkscape.org/namespaces/inkscape"
   width="215.57422"
   height="42.21484"
   viewBox="0 0 215.57422 42.21484"
   id="svg2"
   version="1.1"
   inkscape:version="0.91 r13725"
   sodipodi:docname="logo.svg">
  <defs
     id="defs4" />
  <sodipodi:namedview
     id="base"
     pagecolor="#ffffff"
     bordercolor="#666666"
     borderopacity="1.0"
     inkscape:pageopacity="0.0"
     inkscape:pageshadow="2"
     inkscape:zoom="5.6"
     inkscape:cx="138.76714"
     inkscape:cy="-0.66883577"
     inkscape:document-units="px"
     inkscape:current-layer="layer1"
     showgrid="false"
     fit-margin-top="0"
     fit-margin-left="0"
     fit-margin-right="0"
     fit-margin-bottom="0"
     units="px"
     inkscape:window-width="1920"
     inkscape:window-height="1011"
     inkscape:window-x="0"
     inkscape:window-y="27"
     inkscape:window-maximized="1" />
  <metadata
     id="metadata7">
    <rdf:RDF>
      <cc:Work
         rdf:about="">
        <dc:format>image/svg+xml</dc:format>
        <dc:type
           rdf:resource="http://purl.org/dc/dcmitype/StillImage" />
        <dc:title></dc:title>
      </cc:Work>
    </rdf:RDF>
  </metadata>
  <g
     inkscape:label="Layer 1"
     inkscape:groupmode="layer"
     id="layer1"
     transform="translate(-243.78427,-384.74112)">
    <g
       id="g3496">
      <path
         d="m 264.54599,390.34659 q 0,0.83984 -0.23438,1.54297 -0.21484,0.68359 -0.60546,1.1914 -0.39063,0.48828 -0.95704,0.76172 -0.5664,0.27344 -1.23046,0.27344 -0.76172,0 -1.38672,-0.3125 -0.60547,-0.33203 -1.05469,-0.9375 0.74219,-0.54688 1.19141,-1.44531 0.44921,-0.91797 0.44921,-1.95313 0,-1.28906 -0.76171,-2.03125 -0.76172,-0.76172 -2.08985,-0.76172 -0.80078,0 -1.48437,0.3125 -0.66407,0.29297 -1.15235,0.83985 -0.46875,0.52734 -0.74218,1.26953 -0.25391,0.74219 -0.25391,1.62109 0,1.32813 0.64453,2.5 0.64453,1.17188 1.62109,2.30469 0.97657,1.13281 2.10938,2.30469 1.13281,1.15234 2.10937,2.48047 0.97657,1.30859 1.6211,2.85156 0.64453,1.52344 0.64453,3.3789 0,1.97266 -0.82031,3.65235 -0.82032,1.66015 -2.28516,2.89062 -1.44531,1.21094 -3.41797,1.89453 -1.95312,0.70313 -4.23828,0.70313 -1.91406,0 -3.47656,-0.50781 -1.54297,-0.48828 -2.65625,-1.40625 -1.09375,-0.9375 -1.69922,-2.22657 -0.60547,-1.28906 -0.60547,-2.87109 0,-1.32812 0.42969,-2.48047 0.42969,-1.15234 1.17187,-1.99219 0.74219,-0.85937 1.75782,-1.34765 1.01562,-0.48828 2.16796,-0.48828 1.40625,0 2.36329,0.70312 0.95703,0.70313 1.1914,1.9336 -1.05469,0 -1.89453,0.29296 -0.83984,0.29297 -1.42578,0.82032 -0.58594,0.52734 -0.91797,1.28906 -0.3125,0.74219 -0.3125,1.67969 0,1.75781 1.01563,2.79297 1.03515,1.01562 2.77343,1.01562 1.05469,0 1.95313,-0.37109 0.89844,-0.39063 1.54297,-1.05469 0.64453,-0.66406 1.01562,-1.58203 0.3711,-0.91797 0.3711,-1.99219 0,-1.09375 -0.3711,-2.08984 -0.35156,-1.01563 -0.95703,-1.95313 -0.60547,-0.95703 -1.36719,-1.875 -0.76172,-0.91797 -1.5625,-1.83594 -0.80078,-0.9375 -1.5625,-1.875 -0.76172,-0.9375 -1.36718,-1.91406 -0.60547,-0.99609 -0.97657,-2.05078 -0.35156,-1.05469 -0.35156,-2.22656 0,-1.58203 0.66406,-2.91016 0.6836,-1.34765 1.875,-2.32422 1.21094,-0.97656 2.85157,-1.52343 1.64062,-0.56641 3.57421,-0.56641 1.6211,0 2.92969,0.41016 1.3086,0.39062 2.22656,1.13281 0.9375,0.72265 1.44532,1.75781 0.50781,1.03516 0.50781,2.30469 z"
         style="font-style:normal;font-variant:normal;font-weight:normal;font-stretch:normal;font-size:medium;line-height:125%;font-family:Lobster;-inkscape-font-specification:Lobster;letter-spacing:0px;word-spacing:0px;fill:#ffffff;fill-opacity:1;stroke:none;stroke-width:1px;stroke-linecap:butt;stroke-linejoin:miter;stroke-opacity:1"
         id="path3341"
         inkscape:connector-curvature="0" />
      <path
         d="m 261.6163,424.95596 6.67969,-31.48437 5.76172,0 -0.64453,3.00781 q 0.8789,-0.74219 2.01172,-1.23047 1.13281,-0.48828 2.65625,-0.48828 1.01562,0 1.91406,0.33203 0.89844,0.3125 1.54297,1.05469 0.66406,0.72266 1.03515,1.93359 0.39063,1.21094 0.39063,2.98828 0,1.34766 -0.19531,2.92969 -0.17579,1.5625 -0.625,3.14453 -0.44922,1.5625 -1.19141,3.02735 -0.72266,1.44531 -1.81641,2.55859 -1.09375,1.11328 -2.59765,1.79688 -1.48438,0.66406 -3.41797,0.66406 -0.76172,0 -1.32813,-0.11719 -0.5664,-0.11719 -0.97656,-0.3125 -0.39062,-0.19531 -0.66406,-0.44922 -0.25391,-0.27344 -0.42969,-0.54687 l -2.07031,9.74609 -6.03516,1.44531 z m 8.75,-14.16015 q 0.11719,0.33203 0.46875,0.625 0.3711,0.29297 1.05469,0.29297 1.05469,0 1.875,-0.52735 0.82031,-0.54687 1.44531,-1.42578 0.625,-0.89844 1.05469,-2.03125 0.42969,-1.13281 0.70312,-2.32422 0.27344,-1.1914 0.39063,-2.34375 0.13672,-1.17187 0.13672,-2.10937 0,-1.15235 -0.21485,-1.81641 -0.21484,-0.66406 -0.52734,-0.99609 -0.29297,-0.33203 -0.64453,-0.41016 -0.35156,-0.0977 -0.625,-0.0977 -0.68359,0 -1.44531,0.50782 -0.74219,0.48828 -1.3086,1.46484 l -2.36328,11.19141 z"
         style="font-style:normal;font-variant:normal;font-weight:normal;font-stretch:normal;font-size:medium;line-height:125%;font-family:Lobster;-inkscape-font-specification:Lobster;letter-spacing:0px;word-spacing:0px;fill:#ffffff;fill-opacity:1;stroke:none;stroke-width:1px;stroke-linecap:butt;stroke-linejoin:miter;stroke-opacity:1"
         id="path3343"
         inkscape:connector-curvature="0" />
      <path
         d="m 296.3624,407.78799 q -0.56641,1.6211 -1.26954,2.8125 -0.68359,1.19141 -1.44531,2.01172 -0.74219,0.82032 -1.54297,1.32813 -0.78125,0.50781 -1.52343,0.78125 -0.74219,0.27344 -1.42579,0.37109 -0.66406,0.0977 -1.1914,0.0977 -0.89844,0 -1.67969,-0.27344 -0.78125,-0.27344 -1.36719,-0.85937 -0.5664,-0.58594 -0.89843,-1.48438 -0.33204,-0.89844 -0.33204,-2.16797 0,-0.54687 0.0781,-1.1914 0.0781,-0.66407 0.23437,-1.42579 l 4.27735,-20.03906 5.91797,-0.80078 -4.58985,21.60156 q -0.0976,0.33203 -0.13672,0.66407 -0.0195,0.3125 -0.0195,0.625 0,0.83984 0.39063,1.17187 0.39062,0.3125 1.23047,0.3125 0.58593,0 1.13281,-0.25391 0.56641,-0.27343 1.03516,-0.74218 0.46875,-0.46875 0.83984,-1.11328 0.37109,-0.66407 0.60547,-1.42579 l 1.67969,0 z"
         style="font-style:normal;font-variant:normal;font-weight:normal;font-stretch:normal;font-size:medium;line-height:125%;font-family:Lobster;-inkscape-font-specification:Lobster;letter-spacing:0px;word-spacing:0px;fill:#ffffff;fill-opacity:1;stroke:none;stroke-width:1px;stroke-linecap:butt;stroke-linejoin:miter;stroke-opacity:1"
         id="path3345"
         inkscape:connector-curvature="0" />
      <path
         d="m 304.58505,389.64346 q 0,0.66407 -0.2539,1.25 -0.25391,0.56641 -0.70313,0.9961 -0.42969,0.41015 -1.01562,0.66406 -0.56641,0.23437 -1.23047,0.23437 -0.66407,0 -1.25,-0.23437 -0.56641,-0.25391 -0.9961,-0.66406 -0.42968,-0.42969 -0.68359,-0.9961 -0.23438,-0.58593 -0.23438,-1.25 0,-0.66406 0.23438,-1.23047 0.25391,-0.58593 0.68359,-1.01562 0.42969,-0.44922 0.9961,-0.70313 0.58593,-0.2539 1.25,-0.2539 0.66406,0 1.23047,0.2539 0.58593,0.25391 1.01562,0.70313 0.44922,0.42969 0.70313,1.01562 0.2539,0.56641 0.2539,1.23047 z m 2.48047,18.14453 q -0.56641,1.6211 -1.26953,2.8125 -0.68359,1.19141 -1.44531,2.01172 -0.74219,0.82032 -1.54297,1.32813 -0.78125,0.50781 -1.52344,0.78125 -0.74219,0.27344 -1.42578,0.37109 -0.66406,0.0977 -1.19141,0.0977 -0.89843,0 -1.67968,-0.27344 -0.78125,-0.27344 -1.36719,-0.85937 -0.56641,-0.58594 -0.89844,-1.48438 -0.33203,-0.89844 -0.33203,-2.16797 0,-0.54687 0.0781,-1.1914 0.0781,-0.66407 0.23438,-1.42579 l 2.71484,-12.83203 5.76172,0 -2.87109,13.59375 q -0.0977,0.33203 -0.13672,0.66407 -0.0195,0.3125 -0.0195,0.625 0,0.83984 0.39062,1.17187 0.39063,0.3125 1.23047,0.3125 0.58594,0 1.13281,-0.25391 0.56641,-0.27343 1.03516,-0.74218 0.46875,-0.46875 0.83984,-1.11328 0.3711,-0.66407 0.60547,-1.42579 l 1.67969,0 z"
         style="font-style:normal;font-variant:normal;font-weight:normal;font-stretch:normal;font-size:medium;line-height:125%;font-family:Lobster;-inkscape-font-specification:Lobster;letter-spacing:0px;word-spacing:0px;fill:#ffffff;fill-opacity:1;stroke:none;stroke-width:1px;stroke-linecap:butt;stroke-linejoin:miter;stroke-opacity:1"
         id="path3347"
         inkscape:connector-curvature="0" />
      <path
         d="m 307.96396,396.55753 -1.32813,0 0.33203,-1.60157 1.3086,0 1.21094,-5.52734 5.91796,-0.80078 q -0.0976,0.39062 -0.19531,0.85937 -0.0977,0.44922 -0.19531,0.95703 -0.21484,0.83985 -0.46875,2.01172 -0.23438,1.15235 -0.50781,2.5 l 2.40234,0 -0.3125,1.60157 -2.40234,0 -2.5586,11.99218 q -0.0976,0.39063 -0.15625,0.76172 -0.0391,0.35156 -0.0391,0.64453 0,0.625 0.27344,1.03516 0.29297,0.41016 1.11328,0.41016 0.21484,0 0.50781,0 0.29297,-0.0195 0.54688,-0.11719 -0.44922,1.28906 -0.97657,2.07031 -0.52734,0.76172 -1.07421,1.17188 -0.54688,0.41015 -1.11329,0.52734 -0.54687,0.13672 -1.07421,0.13672 -1.07422,0 -1.83594,-0.33203 -0.76172,-0.35157 -1.25,-0.95703 -0.46875,-0.60547 -0.6836,-1.42579 -0.23437,-0.83984 -0.23437,-1.79687 0,-1.03516 0.23437,-2.12891 l 2.5586,-11.99218 z"
         style="font-style:normal;font-variant:normal;font-weight:normal;font-stretch:normal;font-size:medium;line-height:125%;font-family:Lobster;-inkscape-font-specification:Lobster;letter-spacing:0px;word-spacing:0px;fill:#ffffff;fill-opacity:1;stroke:none;stroke-width:1px;stroke-linecap:butt;stroke-linejoin:miter;stroke-opacity:1"
         id="path3349"
         inkscape:connector-curvature="0" />
      <path
         d="m 338.53036,418.15909 q -0.42968,2.14844 -1.25,3.47656 -0.80078,1.32813 -1.79687,2.07031 -0.99609,0.74219 -2.08984,0.9961 -1.07422,0.2539 -2.07032,0.2539 -0.91797,0 -1.73828,-0.2539 -0.80078,-0.23438 -1.40625,-0.72266 -0.60547,-0.46875 -0.97656,-1.21094 -0.35156,-0.72265 -0.35156,-1.69922 0,-1.25 0.58593,-2.20703 0.60547,-0.95703 1.54297,-1.67968 0.9375,-0.70313 2.08985,-1.21094 1.17187,-0.50781 2.30468,-0.85938 l 0.48829,-2.14843 q -0.64454,0.70312 -1.28907,1.15234 -0.64453,0.42969 -1.25,0.66406 -0.60547,0.23438 -1.17187,0.3125 -0.56641,0.0977 -1.09375,0.0977 -0.89844,0 -1.67969,-0.27344 -0.78125,-0.27344 -1.36719,-0.85937 -0.5664,-0.58594 -0.89843,-1.48438 -0.33204,-0.89844 -0.33204,-2.16797 0,-0.54687 0.0781,-1.1914 0.0781,-0.66407 0.23437,-1.42579 l 2.71485,-12.83203 5.76172,0 -2.8711,13.59375 q -0.11718,0.50782 -0.11718,1.01563 0,0.35156 0.0586,0.66406 0.0586,0.3125 0.19531,0.56641 0.13672,0.23437 0.35156,0.39062 0.23438,0.13672 0.58594,0.13672 0.54688,0 1.01563,-0.23437 0.48828,-0.25391 0.8789,-0.6836 0.39063,-0.44922 0.6836,-1.05469 0.3125,-0.60546 0.54687,-1.30859 l 2.79297,-13.08594 5.76172,0 -3.96484,18.55469 q 0.91796,-0.3125 1.66015,-0.74219 0.74219,-0.44922 1.34766,-1.11328 0.625,-0.68359 1.11328,-1.62109 0.50781,-0.9375 0.91797,-2.2461 l 1.67969,0 q -0.60547,1.99219 -1.44532,3.32032 -0.82031,1.32812 -1.75781,2.1875 -0.9375,0.83984 -1.93359,1.28906 -0.9961,0.44922 -1.9336,0.68359 l -0.60547,2.89063 z m -5.5664,-1.03516 q -0.78125,0.29297 -1.48438,0.625 -0.70312,0.35156 -1.25,0.76172 -0.52734,0.41016 -0.85937,0.89844 -0.3125,0.50781 -0.3125,1.11328 0,0.21484 0.0781,0.44922 0.0781,0.23437 0.23438,0.42969 0.17578,0.19531 0.42969,0.3125 0.2539,0.11718 0.60546,0.11718 0.625,0 1.26954,-0.8789 0.66406,-0.85938 1.05468,-2.67578 l 0.23438,-1.15235 z"
         style="font-style:normal;font-variant:normal;font-weight:normal;font-stretch:normal;font-size:medium;line-height:125%;font-family:Lobster;-inkscape-font-specification:Lobster;letter-spacing:0px;word-spacing:0px;fill:#ffffff;fill-opacity:1;stroke:none;stroke-width:1px;stroke-linecap:butt;stroke-linejoin:miter;stroke-opacity:1"
         id="path3351"
         inkscape:connector-curvature="0" />
      <path
         d="m 364.01865,397.24112 q -0.33204,0.64453 -0.72266,1.40625 -0.37109,0.74219 -0.87891,1.48437 -0.48828,0.72266 -1.11328,1.38672 -0.60547,0.64453 -1.40625,1.07422 -0.19531,2.8711 -0.99609,5.19531 -0.80078,2.32422 -2.07031,3.94532 -1.25,1.62109 -2.91016,2.5 -1.64063,0.8789 -3.53516,0.8789 -1.38672,0 -2.57812,-0.33203 -1.17188,-0.35156 -2.03125,-1.09375 -0.83985,-0.76172 -1.3086,-1.95312 -0.48828,-1.21094 -0.48828,-2.92969 0,-1.17188 0.23438,-2.65625 0.23437,-1.50391 0.74219,-3.08594 0.52734,-1.58203 1.34765,-3.08594 0.83985,-1.52343 2.03125,-2.71484 1.21094,-1.19141 2.8125,-1.91406 1.60156,-0.74219 3.67188,-0.74219 4.72656,0 5.07812,5.39063 0.50781,-0.11719 0.9375,-0.44922 0.44922,-0.33203 0.80078,-0.74219 0.3711,-0.41016 0.64453,-0.83984 0.29297,-0.42969 0.46875,-0.72266 l 1.26954,0 z m -7.51954,5.95703 q -0.95703,-0.35156 -0.95703,-1.79687 0,-1.54297 1.13282,-2.08985 -0.0977,-1.28906 -0.44922,-1.77734 -0.33203,-0.50781 -1.07422,-0.50781 -0.70313,0 -1.36719,0.5664 -0.66406,0.54688 -1.25,1.46485 -0.58594,0.91796 -1.07422,2.10937 -0.46875,1.17188 -0.82031,2.42188 -0.33203,1.25 -0.52734,2.48046 -0.17579,1.21094 -0.17579,2.20704 0,0.99609 0.0977,1.62109 0.11719,0.625 0.35156,0.99609 0.25391,0.35157 0.64453,0.48828 0.39063,0.13672 0.95704,0.13672 0.72265,0 1.42578,-0.64453 0.72265,-0.64453 1.32812,-1.75781 0.60547,-1.11328 1.05469,-2.63672 0.46875,-1.52344 0.70312,-3.28125 z"
         style="font-style:normal;font-variant:normal;font-weight:normal;font-stretch:normal;font-size:medium;line-height:125%;font-family:Lobster;-inkscape-font-specification:Lobster;letter-spacing:0px;word-spacing:0px;fill:#ffffff;fill-opacity:1;stroke:none;stroke-width:1px;stroke-linecap:butt;stroke-linejoin:miter;stroke-opacity:1"
         id="path3353"
         inkscape:connector-curvature="0" />
      <path
         d="m 370.19052,384.87784 4.19922,0 -4.39453,9.27734 -2.79297,0 2.98828,-9.27734 z"
         style="font-style:normal;font-variant:normal;font-weight:normal;font-stretch:normal;font-size:medium;line-height:125%;font-family:Lobster;-inkscape-font-specification:Lobster;letter-spacing:0px;word-spacing:0px;fill:#ffffff;fill-opacity:1;stroke:none;stroke-width:1px;stroke-linecap:butt;stroke-linejoin:miter;stroke-opacity:1"
         id="path3355"
         inkscape:connector-curvature="0" />
      <path
         d="m 375.81552,414.95596 5.42969,-25.44922 5.91797,-0.78125 -1.875,8.86719 0.23437,0 q 1.19141,0 2.22656,-0.58594 1.05469,-0.58593 1.83594,-1.52343 0.78125,-0.9375 1.23047,-2.08985 0.46875,-1.15234 0.46875,-2.28515 0,-0.83985 -0.29297,-1.60157 -0.29297,-0.78125 -0.91797,-1.38671 -0.625,-0.60547 -1.64062,-0.95704 -0.9961,-0.37109 -2.42188,-0.37109 -1.17187,0 -2.38281,0.27344 -1.19141,0.2539 -2.30469,0.80078 -1.09375,0.52734 -2.07031,1.32812 -0.97656,0.80079 -1.69922,1.89454 -0.70312,1.07421 -1.13281,2.4414 -0.41016,1.34766 -0.41016,2.98828 0,0.76172 0.0781,1.25 0.0976,0.46875 0.19531,0.76172 0.11719,0.27344 0.19531,0.42969 0.0977,0.15625 0.0977,0.27344 -2.03125,0 -3.16406,-0.82032 -1.11328,-0.82031 -1.11328,-2.85156 0,-1.38672 0.54687,-2.69531 0.54688,-1.32813 1.52344,-2.5 0.99609,-1.19141 2.34375,-2.16797 1.36719,-0.99609 2.96875,-1.71875 1.62109,-0.72266 3.41797,-1.11328 1.8164,-0.41016 3.71093,-0.41016 2.20704,0 3.8086,0.54688 1.60156,0.52734 2.63672,1.40625 1.05468,0.8789 1.5625,2.03125 0.50781,1.15234 0.50781,2.38281 0,0.89844 -0.25391,1.79688 -0.2539,0.89843 -0.76172,1.71875 -0.50781,0.82031 -1.26953,1.5625 -0.74218,0.72265 -1.71875,1.26953 1.28907,0.23437 2.1875,0.85937 0.89844,0.60547 1.46485,1.48438 0.5664,0.85937 0.82031,1.91406 0.25391,1.05469 0.25391,2.1875 0,0.95703 -0.19532,2.1875 -0.17578,1.23047 -0.58593,2.51953 -0.41016,1.26953 -1.07422,2.5 -0.66407,1.23047 -1.64063,2.1875 -0.97656,0.95703 -2.28515,1.54297 -1.28907,0.58594 -2.96875,0.58594 -0.64454,0 -1.34766,-0.11719 -0.70313,-0.11719 -1.28906,-0.44922 -0.56641,-0.33203 -0.95703,-0.89844 -0.3711,-0.58593 -0.3711,-1.5039 0,-0.50782 0.11719,-1.07422 0.11719,-0.56641 0.39062,-1.25 0.76172,0.82031 1.38672,1.13281 0.625,0.3125 1.3086,0.3125 1.09375,0 1.83593,-0.68359 0.76172,-0.70313 1.23047,-1.75782 0.46875,-1.07421 0.66407,-2.34375 0.21484,-1.26953 0.21484,-2.40234 0,-1.03516 -0.19531,-1.95312 -0.17578,-0.9375 -0.625,-1.6211 -0.42969,-0.70312 -1.15235,-1.11328 -0.72265,-0.41016 -1.8164,-0.41016 -0.25391,0 -0.76172,0.0195 -0.50781,0.0195 -1.07422,0.11718 l -3.28125,15.3125 -5.76172,0 z"
         style="font-style:normal;font-variant:normal;font-weight:normal;font-stretch:normal;font-size:medium;line-height:125%;font-family:Lobster;-inkscape-font-specification:Lobster;letter-spacing:0px;word-spacing:0px;fill:#ffffff;fill-opacity:1;stroke:none;stroke-width:1px;stroke-linecap:butt;stroke-linejoin:miter;stroke-opacity:1"
         id="path3357"
         inkscape:connector-curvature="0" />
      <path
         d="m 407.31943,389.64346 q 0,0.66407 -0.25391,1.25 -0.25391,0.56641 -0.70312,0.9961 -0.42969,0.41015 -1.01563,0.66406 -0.56641,0.23437 -1.23047,0.23437 -0.66406,0 -1.25,-0.23437 -0.5664,-0.25391 -0.99609,-0.66406 -0.42969,-0.42969 -0.6836,-0.9961 -0.23437,-0.58593 -0.23437,-1.25 0,-0.66406 0.23437,-1.23047 0.25391,-0.58593 0.6836,-1.01562 0.42969,-0.44922 0.99609,-0.70313 0.58594,-0.2539 1.25,-0.2539 0.66406,0 1.23047,0.2539 0.58594,0.25391 1.01563,0.70313 0.44921,0.42969 0.70312,1.01562 0.25391,0.56641 0.25391,1.23047 z m 2.48047,18.14453 q -0.56641,1.6211 -1.26954,2.8125 -0.68359,1.19141 -1.44531,2.01172 -0.74219,0.82032 -1.54297,1.32813 -0.78125,0.50781 -1.52343,0.78125 -0.74219,0.27344 -1.42579,0.37109 -0.66406,0.0977 -1.1914,0.0977 -0.89844,0 -1.67969,-0.27344 -0.78125,-0.27344 -1.36719,-0.85937 -0.5664,-0.58594 -0.89843,-1.48438 -0.33204,-0.89844 -0.33204,-2.16797 0,-0.54687 0.0781,-1.1914 0.0781,-0.66407 0.23437,-1.42579 l 2.71485,-12.83203 5.76172,0 -2.8711,13.59375 q -0.0976,0.33203 -0.13672,0.66407 -0.0195,0.3125 -0.0195,0.625 0,0.83984 0.39063,1.17187 0.39062,0.3125 1.23047,0.3125 0.58593,0 1.13281,-0.25391 0.56641,-0.27343 1.03516,-0.74218 0.46875,-0.46875 0.83984,-1.11328 0.37109,-0.66407 0.60547,-1.42579 l 1.67969,0 z"
         style="font-style:normal;font-variant:normal;font-weight:normal;font-stretch:normal;font-size:medium;line-height:125%;font-family:Lobster;-inkscape-font-specification:Lobster;letter-spacing:0px;word-spacing:0px;fill:#ffffff;fill-opacity:1;stroke:none;stroke-width:1px;stroke-linecap:butt;stroke-linejoin:miter;stroke-opacity:1"
         id="path3359"
         inkscape:connector-curvature="0" />
      <path
         d="m 420.50302,407.78799 q -0.56641,1.6211 -1.26953,2.8125 -0.68359,1.19141 -1.44531,2.01172 -0.74219,0.82032 -1.54297,1.32813 -0.78125,0.50781 -1.52344,0.78125 -0.74219,0.27344 -1.42578,0.37109 -0.66406,0.0977 -1.19141,0.0977 -0.89843,0 -1.67968,-0.27344 -0.78125,-0.27344 -1.36719,-0.85937 -0.56641,-0.58594 -0.89844,-1.48438 -0.33203,-0.89844 -0.33203,-2.16797 0,-0.54687 0.0781,-1.1914 0.0781,-0.66407 0.23438,-1.42579 l 4.27734,-20.03906 5.91797,-0.80078 -4.58984,21.60156 q -0.0977,0.33203 -0.13672,0.66407 -0.0195,0.3125 -0.0195,0.625 0,0.83984 0.39062,1.17187 0.39063,0.3125 1.23047,0.3125 0.58594,0 1.13281,-0.25391 0.56641,-0.27343 1.03516,-0.74218 0.46875,-0.46875 0.83984,-1.11328 0.3711,-0.66407 0.60547,-1.42579 l 1.67969,0 z"
         style="font-style:normal;font-variant:normal;font-weight:normal;font-stretch:normal;font-size:medium;line-height:125%;font-family:Lobster;-inkscape-font-specification:Lobster;letter-spacing:0px;word-spacing:0px;fill:#ffffff;fill-opacity:1;stroke:none;stroke-width:1px;stroke-linecap:butt;stroke-linejoin:miter;stroke-opacity:1"
         id="path3361"
         inkscape:connector-curvature="0" />
      <path
         d="m 423.04208,387.67081 5.91797,-0.80078 -4.58984,21.60156 q -0.0977,0.33203 -0.13672,0.625 -0.0391,0.27344 -0.0391,0.54687 0,0.6836 0.35156,1.15235 0.35156,0.44922 1.28906,0.44922 0.56641,0 0.82031,-0.0781 0.25391,-0.0781 0.46875,-0.17578 -0.0781,1.07422 -0.48828,1.875 -0.39062,0.78125 -0.99609,1.30859 -0.60547,0.50782 -1.36719,0.76172 -0.76172,0.25391 -1.54297,0.25391 -0.89843,0 -1.67968,-0.27344 -0.78125,-0.29297 -1.36719,-0.87891 -0.56641,-0.60546 -0.89844,-1.52343 -0.33203,-0.91797 -0.33203,-2.20703 0,-0.52735 0.0781,-1.17188 0.0781,-0.66406 0.23438,-1.42578 l 4.27734,-20.03906 z m 4.08203,27.28515 10.19532,-17.83203 -2.2461,0 q -0.46875,0 -0.8789,0.0195 -0.39063,0.0195 -0.6836,0.0781 -0.29297,0.0586 -0.46875,0.19531 -0.15625,0.11719 -0.15625,0.33203 0,0.0977 0.0586,0.11719 0.0781,0.0195 0.15625,0.0781 0.0781,0.0586 0.13672,0.19532 0.0781,0.13672 0.0781,0.48828 0,0.5664 -0.19531,0.97656 -0.17578,0.39063 -0.48828,0.64453 -0.29297,0.25391 -0.6836,0.39063 -0.37109,0.11718 -0.78125,0.11718 -0.35156,0 -0.68359,-0.11718 -0.3125,-0.11719 -0.58594,-0.33203 -0.2539,-0.21485 -0.41015,-0.54688 -0.15625,-0.33203 -0.15625,-0.76172 0,-0.60547 0.3125,-1.30859 0.33203,-0.72266 0.91796,-1.32813 0.60547,-0.60547 1.46485,-0.99609 0.85937,-0.41016 1.93359,-0.41016 l 10.27344,0 -9.78516,16.91407 q 0.25391,0.0195 0.60547,0.0586 0.35156,0.0391 0.76172,0.0977 0.41016,0.0391 0.82031,0.0781 0.42969,0.0195 0.83985,0.0195 0.74218,0 1.26953,-0.15625 0.52734,-0.17578 0.625,-0.64453 -0.39063,-0.0391 -0.58594,-0.27344 -0.17578,-0.23437 -0.17578,-0.5664 0,-0.29297 0.13672,-0.58594 0.15625,-0.3125 0.42969,-0.54688 0.27343,-0.2539 0.68359,-0.41015 0.42969,-0.17578 0.97656,-0.17578 0.9375,0 1.34766,0.54687 0.42969,0.54688 0.42969,1.36719 0,0.68359 -0.33204,1.44531 -0.33203,0.76172 -0.95703,1.38672 -0.625,0.625 -1.54297,1.03516 -0.89843,0.41015 -2.05078,0.41015 l -10.60547,0 z"
         style="font-style:normal;font-variant:normal;font-weight:normal;font-stretch:normal;font-size:medium;line-height:125%;font-family:Lobster;-inkscape-font-specification:Lobster;letter-spacing:0px;word-spacing:0px;fill:#ffffff;fill-opacity:1;stroke:none;stroke-width:1px;stroke-linecap:butt;stroke-linejoin:miter;stroke-opacity:1"
         id="path3363"
         inkscape:connector-curvature="0" />
      <path
         d="m 448.15927,405.71768 3.04688,-20 6.15234,-0.83984 -5.80078,20.83984 -3.39844,0 z m 3.73047,6.26953 q 0,0.66407 -0.25391,1.25 -0.23437,0.58594 -0.66406,1.01563 -0.42969,0.42969 -1.01562,0.68359 -0.56641,0.25391 -1.23047,0.25391 -0.66407,0 -1.25,-0.25391 -0.56641,-0.2539 -1.01563,-0.68359 -0.42969,-0.42969 -0.68359,-1.01563 -0.25391,-0.58593 -0.25391,-1.25 0,-0.66406 0.25391,-1.23047 0.2539,-0.5664 0.68359,-0.99609 0.44922,-0.42969 1.01563,-0.66406 0.58593,-0.25391 1.25,-0.25391 0.66406,0 1.23047,0.25391 0.58593,0.23437 1.01562,0.66406 0.42969,0.42969 0.66406,0.99609 0.25391,0.56641 0.25391,1.23047 z"
         style="font-style:normal;font-variant:normal;font-weight:normal;font-stretch:normal;font-size:medium;line-height:125%;font-family:Lobster;-inkscape-font-specification:Lobster;letter-spacing:0px;word-spacing:0px;fill:#ffffff;fill-opacity:1;stroke:none;stroke-width:1px;stroke-linecap:butt;stroke-linejoin:miter;stroke-opacity:1"
         id="path3365"
         inkscape:connector-curvature="0" />
    </g>
  </g>
</svg>
